<svg width="642" height="592" xmlns="http://www.w3.org/2000/svg" xmlns:xlink="http://www.w3.org/1999/xlink" overflow="hidden"><g transform="translate(-308 -34)"><path d="M310 307 948.74 307" stroke="#E1E1E1" stroke-width="2" stroke-linecap="round" stroke-miterlimit="8" fill="none" fill-rule="evenodd"/><path d="M310 353 948.74 353" stroke="#E1E1E1" stroke-width="2" stroke-linecap="round" stroke-miterlimit="8" fill="none" fill-rule="evenodd"/><path d="M310 398 948.74 398" stroke="#E1E1E1" stroke-width="2" stroke-linecap="round" stroke-miterlimit="8" fill="none" fill-rule="evenodd"/><path d="M310 443 948.74 443" stroke="#E1E1E1" stroke-width="2" stroke-linecap="round" stroke-miterlimit="8" fill="none" fill-rule="evenodd"/><path d="M310 488 948.74 488" stroke="#E1E1E1" stroke-width="2" stroke-linecap="round" stroke-miterlimit="8" fill="none" fill-rule="evenodd"/><path d="M310 534 948.74 534" stroke="#E1E1E1" stroke-width="2" stroke-linecap="round" stroke-miterlimit="8" fill="none" fill-rule="evenodd"/><path d="M310 579 948.74 579" stroke="#E1E1E1" stroke-width="2" stroke-linecap="round" stroke-miterlimit="8" fill="none" fill-rule="evenodd"/><path d="M310 624 948.74 624" stroke="#E1E1E1" stroke-width="2" stroke-linecap="round" stroke-miterlimit="8" fill="none" fill-rule="evenodd"/><path d="M310 36 948.74 36.0001" stroke="#E1E1E1" stroke-width="2" stroke-linecap="round" stroke-miterlimit="8" fill="none" fill-rule="evenodd"/><path d="M310 81 948.74 81.0001" stroke="#E1E1E1" stroke-width="2" stroke-linecap="round" stroke-miterlimit="8" fill="none" fill-rule="evenodd"/><path d="M310 126 948.74 126" stroke="#E1E1E1" stroke-width="2" stroke-linecap="round" stroke-miterlimit="8" fill="none" fill-rule="evenodd"/><path d="M310 172 948.74 172" stroke="#E1E1E1" stroke-width="2" stroke-linecap="round" stroke-miterlimit="8" fill="none" fill-rule="evenodd"/><path d="M310 217 948.74 217" stroke="#E1E1E1" stroke-width="2" stroke-linecap="round" stroke-miterlimit="8" fill="none" fill-rule="evenodd"/><path d="M310 262 948.74 262" stroke="#E1E1E1" stroke-width="2" stroke-linecap="round" stroke-miterlimit="8" fill="none" fill-rule="evenodd"/><g><g><g><path d="M123.101 363.674C108.464 355.417 106.963 345.659 105.086 245.827 102.835 150.499 102.835 147.872 93.0765 126.854 87.4469 114.844 77.6889 97.5802 71.3086 88.1975 59.2988 70.9333 58.5481 60.0494 69.4321 60.0494 77.3136 60.0494 106.588 106.212 116.721 135.486 124.602 157.254 125.353 167.763 126.854 249.58 127.98 324.642 129.106 340.78 133.985 346.41 139.24 351.664 147.121 352.79 185.778 352.79 219.18 352.79 233.067 351.289 238.696 347.536 245.452 342.281 245.827 335.151 247.704 210.173L249.58 78.0642 260.089 69.0568C268.721 61.5506 274.726 60.0494 293.116 60.0494 312.632 60.0494 315.259 60.8 315.259 67.5556 315.259 73.9358 312.632 75.0617 299.121 75.0617 267.22 75.0617 268.721 68.3062 266.469 217.679L264.593 349.788 254.084 358.795C243.951 367.427 241.323 367.802 186.528 367.802 155.002 367.802 126.479 365.926 123.101 363.674Z" fill="#212121" transform="matrix(1 0 0 -1.00268 439.469 558)"/><path d="M174.143 249.956C168.514 234.943 182.025 219.931 194.41 227.437 208.296 236.444 202.291 255.21 185.027 255.21 180.148 255.21 175.269 252.958 174.143 249.956Z" fill="#212121" transform="matrix(1 0 0 -1.00268 439.469 558)"/></g></g></g><path d="M610 316C610 306.611 617.611 299 627 299 636.389 299 644 306.611 644 316 644 325.389 636.389 333 627 333 617.611 333 610 325.389 610 316Z" fill="#536DFE" fill-rule="evenodd"/></g></svg>