<?xml version="1.0" standalone="no"?><!DOCTYPE svg PUBLIC "-//W3C//DTD SVG 1.1//EN" "http://www.w3.org/Graphics/SVG/1.1/DTD/svg11.dtd"><svg t="1705205062570" class="icon" viewBox="0 0 1024 1024" version="1.1" xmlns="http://www.w3.org/2000/svg" p-id="16095" xmlns:xlink="http://www.w3.org/1999/xlink" width="128" height="128"><path d="M293.546667 34.133333h-81.92c-47.786667 0-85.333333 37.546667-85.333334 85.333334v785.066666c0 47.786667 37.546667 85.333333 85.333334 85.333334h81.92V34.133333zM812.373333 34.133333H361.813333v955.733334h450.56c47.786667 0 85.333333-37.546667 85.333334-85.333334V119.466667c0-47.786667-37.546667-85.333333-85.333334-85.333334z m-116.053333 419.84H512c-18.773333 0-34.133333-15.36-34.133333-34.133333s15.36-34.133333 34.133333-34.133333h184.32c18.773333 0 34.133333 15.36 34.133333 34.133333s-15.36 34.133333-34.133333 34.133333z m0-184.32H512c-18.773333 0-34.133333-15.36-34.133333-34.133333s15.36-34.133333 34.133333-34.133333h184.32c18.773333 0 34.133333 15.36 34.133333 34.133333s-15.36 34.133333-34.133333 34.133333z" fill="#333333" p-id="16096"></path></svg>