<?xml version="1.0" standalone="no"?><!DOCTYPE svg PUBLIC "-//W3C//DTD SVG 1.1//EN" "http://www.w3.org/Graphics/SVG/1.1/DTD/svg11.dtd"><svg t="1705204906738" class="icon" viewBox="0 0 1024 1024" version="1.1" xmlns="http://www.w3.org/2000/svg" p-id="15695" width="128" height="128" xmlns:xlink="http://www.w3.org/1999/xlink"><path d="M481.28 75.093333l-119.466667 244.053334c-5.12 10.24-13.653333 17.066667-25.6 18.773333l-273.066666 39.253333c-27.306667 3.413333-39.253333 37.546667-18.773334 58.026667l197.973334 192.853333c8.533333 8.533333 11.946667 18.773333 10.24 30.72L204.8 926.72c-5.12 27.306667 23.893333 49.493333 49.493333 35.84l242.346667-128c10.24-5.12 22.186667-5.12 32.426667 0l242.346666 128c25.6 13.653333 54.613333-8.533333 49.493334-35.84l-46.08-267.946667c-1.706667-10.24 1.706667-22.186667 10.24-30.72l197.973333-192.853333c20.48-18.773333 8.533333-52.906667-18.773333-58.026667l-271.36-39.253333c-10.24-1.706667-20.48-8.533333-25.6-18.773333L542.72 75.093333C529.066667 51.2 493.226667 51.2 481.28 75.093333z" fill="#333333" p-id="15696"></path></svg>